<?xml version="1.0" encoding="iso-8859-1"?>
<!-- Generator: Adobe Illustrator 16.0.0, SVG Export Plug-In . SVG Version: 6.00 Build 0)  -->
<!DOCTYPE svg PUBLIC "-//W3C//DTD SVG 1.1//EN" "http://www.w3.org/Graphics/SVG/1.1/DTD/svg11.dtd">
<svg version="1.1" id="Capa_1" xmlns="http://www.w3.org/2000/svg" x="0px" y="0px"
     width="31.283px" height="31.282px" viewBox="0 0 31.283 31.282" style="enable-background:new 0 0 31.283 31.282;"
     xml:space="preserve">
<g>
	<g>
		<circle cx="5.168" cy="10.874" r="2.729"/>
		<path d="M21,11.52c0,1.507,1.224,2.729,2.728,2.729c1.505,0,2.729-1.222,2.729-2.729s-1.225-2.73-2.729-2.73
			C22.223,8.79,21,10.013,21,11.52z"/>
		<polygon points="24.373,20.319 25.214,18.166 25.093,22.751 25.833,22.751 25.613,26.831 25.853,31.282 28.294,31.282 
			27.845,26.831 28.255,22.751 28.843,22.751 28.843,12.202 26.759,12.587 23.728,19.208 		"/>
		<path d="M9.445,7.603L8.073,9.649l0.532-0.044c0.036-0.003,3.583-0.301,6.04-0.845c3.224-0.715,5.144-2.141,5.269-3.915
			c0.17-2.412-2.545-4.575-6.055-4.822c-3.507-0.247-6.5,1.516-6.669,3.928C7.094,5.317,7.933,6.667,9.445,7.603z M13.823,0.538
			c3.226,0.226,5.728,2.143,5.577,4.271c-0.152,2.173-3.453,3.135-4.866,3.448c-1.857,0.411-4.354,0.681-5.435,0.785l1.079-1.61
			L9.937,7.295c-1.486-0.837-2.32-2.073-2.233-3.308C7.854,1.858,10.598,0.311,13.823,0.538z"/>
		<path d="M13.242,3.257c0.061-0.105,0.164-0.158,0.311-0.158c0.235,0,0.353,0.104,0.353,0.311c0,0.069-0.02,0.127-0.061,0.178
			c-0.041,0.049-0.091,0.09-0.149,0.123c-0.059,0.035-0.121,0.066-0.186,0.096c-0.065,0.027-0.122,0.055-0.17,0.078
			c-0.118,0.064-0.207,0.146-0.268,0.244c-0.062,0.097-0.104,0.197-0.128,0.299c-0.024,0.101-0.036,0.2-0.036,0.298
			c0,0.093,0.002,0.17,0.006,0.231h1.125c0-0.069,0.005-0.131,0.015-0.184c0.01-0.053,0.028-0.1,0.052-0.14s0.059-0.079,0.104-0.116
			c0.045-0.036,0.102-0.072,0.17-0.109c0.101-0.052,0.201-0.104,0.298-0.154c0.098-0.052,0.186-0.115,0.265-0.192
			s0.143-0.173,0.192-0.288c0.049-0.116,0.073-0.268,0.073-0.455c-0.008-0.133-0.042-0.274-0.1-0.422
			c-0.059-0.148-0.151-0.285-0.277-0.408c-0.126-0.123-0.29-0.226-0.493-0.305c-0.204-0.079-0.453-0.119-0.749-0.119
			c-0.3,0-0.555,0.047-0.764,0.138c-0.209,0.091-0.38,0.21-0.514,0.356c-0.134,0.146-0.234,0.31-0.299,0.495
			c-0.065,0.184-0.104,0.373-0.116,0.562h1.272C13.156,3.482,13.181,3.363,13.242,3.257z"/>
		<rect x="12.84" y="5.309" width="1.266" height="1.206"/>
		<path d="M13.963,15.211l0.022-0.335l-5.402-0.353l-0.075,1.154H8.502l-0.187,2.864H7.171l0.008-4.535l-0.05,0.021v-0.021H6.096
			h-2.55L3.413,22.32H4l0.411,4.08l-0.449,4.451h2.442l0.24-4.451l-0.22-4.08h0.74l0.004-2.067h1.036L8.096,21.92l5.442,0.354
			l0.408-6.241l-5.104-0.334l0.006-0.093l4.927,0.322l0.002-0.042L8.85,15.563l0.006-0.096l4.927,0.322l0.003-0.042l-4.927-0.321
			l0.006-0.104l4.927,0.322l0.003-0.041l-4.927-0.322l0.007-0.114l4.927,0.321l0.003-0.043l-4.927-0.32l0.006-0.102l4.909,0.32
			l0.003-0.041l-4.907-0.321l0.006-0.102L13.963,15.211z M9.335,17.017l3.612,0.234l-0.098,1.507l-3.612-0.234L9.335,17.017z"/>
	</g>
</g>
<g>
</g>
<g>
</g>
<g>
</g>
<g>
</g>
<g>
</g>
<g>
</g>
<g>
</g>
<g>
</g>
<g>
</g>
<g>
</g>
<g>
</g>
<g>
</g>
<g>
</g>
<g>
</g>
<g>
</g>
</svg>
